<svg width="108" height="68" viewBox="0 0 108 68" stroke-width="1" xmlns="http://www.w3.org/2000/svg">
  <path d="M 5,62.065772 V 5 h 11.109933 v 20.553021 q 5.139827,-5.761073 12.177434,-5.761073 7.670203,0 12.691418,5.48859 Q 46,30.730202 46,40.967785 46,51.555704 40.860173,57.277853 35.759883,63 28.445517,63 24.847638,63 21.328833,61.248321 17.849566,59.457718 15.31919,55.993288 v 6.072484 z M 16.030858,40.500671 q 0,6.422819 2.05593,9.497987 2.886211,4.359732 7.670203,4.359732 3.676954,0 6.246866,-3.075169 2.60945,-3.114094 2.60945,-9.77047 0,-7.084563 -2.60945,-10.198656 -2.60945,-3.153022 -6.681775,-3.153022 -3.993249,0 -6.642236,3.075168 -2.648988,3.036243 -2.648988,9.26443 z" fill="#333333" fill-rule="evenodd"/>
  <path d="m 102.87185,32.549735 c -0.0145,-0.107653 -0.0436,-0.211184 -0.0868,-0.310571 -0.20704,-0.536241 -0.71218,-1.035204 -1.24212,-1.171853 -0.90258,-0.223618 -3.10936,-0.575574 -5.12156,-0.84267 v -0.0019 c -0.22359,-0.029 -0.41196,-0.182195 -0.48649,-0.39544 -0.27533,-0.801266 -0.60035,-1.585989 -0.970874,-2.347923 -0.09941,-0.200836 -0.07453,-0.443077 0.06413,-0.62116 1.23379,-1.612894 2.54627,-3.424519 3.02858,-4.221653 0.27742,-0.469992 0.28361,-1.184307 0.0476,-1.708151 l -0.002,0.0019 c -0.0394,-0.10143 -0.0931,-0.196694 -0.16147,-0.283645 -0.49269,-0.612837 -1.94802,-2.128426 -2.70776,-2.882084 -0.759819,-0.755746 -2.273111,-2.215405 -2.883783,-2.706119 -0.08687,-0.06825 -0.180083,-0.122161 -0.283599,-0.163567 -0.521675,-0.236027 -1.242123,-0.229822 -1.707895,0.04763 -0.794936,0.482411 -2.608404,1.797136 -4.221012,3.029061 l 0.0021,0.0019 c -0.178088,0.136647 -0.418223,0.161503 -0.621114,0.06411 -0.761808,-0.372673 -1.546396,-0.697742 -2.34754,-0.973092 C 82.957024,16.989938 82.803816,16.801564 82.77483,16.577945 82.505719,14.565447 82.15378,12.358354 81.932312,11.4556 81.795681,10.925564 81.294734,10.42037 80.76063,10.213292 h -0.0021 c -0.09941,-0.0436 -0.207,-0.07241 -0.314676,-0.08492 C 79.669643,10.041487 77.568425,10 76.498179,10 c -1.070248,0 -3.171482,0.04152 -3.951889,0.124232 -0.107645,0.0145 -0.211168,0.04349 -0.310531,0.08492 -0.536149,0.20705 -1.035052,0.712271 -1.171691,1.2423 -0.223565,0.902723 -0.575477,3.109845 -0.842521,5.122353 l -0.0019,0.0019 c -0.029,0.223619 -0.182176,0.412029 -0.395388,0.486564 -0.801153,0.275378 -1.585747,0.600436 -2.347562,0.973114 v -0.0019 c -0.200797,0.09939 -0.443008,0.07457 -0.621063,-0.06213 -1.612651,-1.233957 -3.423996,-2.546668 -4.220987,-3.029069 -0.469939,-0.277432 -1.184144,-0.283636 -1.707897,-0.04763 l 0.0019,-0.0019 c -0.101405,0.04152 -0.196655,0.09532 -0.283611,0.163575 -0.612733,0.492765 -2.128107,1.94831 -2.88164,2.70818 -0.755611,0.759853 -2.215063,2.277503 -2.705703,2.884146 -0.06825,0.08689 -0.122131,0.180134 -0.163539,0.283646 -0.235992,0.521772 -0.229787,1.242318 0.04763,1.708159 0.482346,0.795063 1.796867,2.608804 3.028595,4.221653 l 0.0019,-0.0019 c 0.136627,0.178064 0.161478,0.418232 0.0641,0.62115 -0.372628,0.761942 -0.697647,1.546658 -0.972965,2.347923 -0.07455,0.213245 -0.262902,0.366472 -0.486478,0.39545 -2.012197,0.269156 -4.218922,0.621149 -5.121564,0.84265 -0.529946,0.136651 -1.035052,0.637691 -1.242117,1.171863 v 0.0019 c -0.04359,0.09723 -0.07238,0.202918 -0.08491,0.310571 C 50.041479,33.330247 50,35.431758 50,36.502152 c 0,1.070422 0.04151,3.17197 0.124223,3.952506 0.01449,0.107661 0.04151,0.215324 0.08274,0.316783 0.207018,0.536233 0.712171,1.035212 1.242119,1.171872 0.902574,0.2236 3.109356,0.575564 5.121553,0.842649 0.223566,0.02901 0.411956,0.182205 0.48855,0.395451 0.273265,0.801266 0.598284,1.585991 0.970885,2.347922 0.09938,0.202899 0.07455,0.443078 -0.0642,0.621159 -1.233798,1.612898 -2.546287,3.424521 -3.028595,4.221636 -0.277408,0.470013 -0.28362,1.184325 -0.04763,1.708158 0.04151,0.101432 0.09518,0.194624 0.161468,0.281586 0.496833,0.608703 1.952163,2.124293 2.711898,2.877949 0.759753,0.755739 2.27717,2.215406 2.883711,2.706121 0.08688,0.06825 0.180096,0.122161 0.28361,0.163566 0.521673,0.236026 1.242118,0.229812 1.707887,-0.04763 0.794941,-0.482421 2.608403,-1.797154 4.221013,-3.029071 h -0.0019 c 0.178035,-0.13872 0.418168,-0.163565 0.621064,-0.06628 0.761805,0.372667 1.546399,0.697736 2.347551,0.973105 0.213212,0.07457 0.366416,0.262934 0.395398,0.488616 0.269116,2.012507 0.621055,4.21959 0.842522,5.122344 0.136628,0.530056 0.637583,1.035231 1.171681,1.242309 h 0.0019 c 0.09721,0.04152 0.202886,0.07051 0.310524,0.08275 0.7784,0.08284 2.881639,0.126305 3.951891,0.124233 1.070256,-0.0019 3.171463,-0.04153 3.951891,-0.124233 0.107633,-0.01244 0.213219,-0.04153 0.314655,-0.08275 0.536162,-0.207031 1.03506,-0.712253 1.171691,-1.242309 0.223577,-0.902706 0.575476,-3.109837 0.842517,-5.122344 0.03099,-0.225672 0.184244,-0.414082 0.395403,-0.488616 0.803204,-0.275388 1.587802,-0.600438 2.347564,-0.973105 0.20286,-0.09724 0.445054,-0.07239 0.62105,0.06628 1.612648,1.233988 3.424007,2.546689 4.220992,3.029071 0.469933,0.277441 1.18415,0.283654 1.707895,0.04763 0.101445,-0.04153 0.196661,-0.09519 0.281539,-0.163566 0.612742,-0.492766 2.128094,-1.94832 2.88371,-2.706121 0.75769,-0.757789 2.21507,-2.273388 2.7057,-2.884154 0.0682,-0.08689 0.12213,-0.180134 0.16354,-0.283636 0.23599,-0.521772 0.22978,-1.242318 -0.0476,-1.708169 -0.48235,-0.795061 -1.79687,-2.608804 -3.02861,-4.221653 v 0.0019 c -0.138702,-0.178053 -0.163539,-0.418233 -0.06413,-0.62114 0.372621,-0.761951 0.697641,-1.546666 0.972951,-2.347922 0.0745,-0.213265 0.26292,-0.366464 0.48649,-0.395461 2.0122,-0.269156 4.218919,-0.62114 5.121559,-0.842651 0.52996,-0.136649 1.03508,-0.637709 1.24211,-1.171852 v -0.0019 c 0.0436,-0.09939 0.0705,-0.207059 0.0849,-0.314721 0.0828,-0.778519 0.12628,-2.882083 0.1242,-3.952506 0,-1.070403 -0.0456,-3.165758 -0.12835,-3.946292 z M 84.809831,36.50225 c 0,2.20506 -0.875633,4.31896 -2.434499,5.878109 -1.558867,1.55917 -3.672453,2.434902 -5.877247,2.434902 -2.204757,0 -4.318295,-0.87579 -5.877212,-2.434902 -1.558919,-1.559103 -2.434527,-3.672993 -2.434527,-5.878109 0,-2.205116 0.875664,-4.318978 2.434527,-5.878138 1.558861,-1.55916 3.672455,-2.434901 5.877212,-2.434901 2.204794,0 4.318319,0.875798 5.877247,2.434901 1.558906,1.559112 2.434499,3.673022 2.434499,5.878138 z" fill="#ff6e6e"/>
</svg>